<?xml version="1.0" encoding="iso-8859-1"?>
<!-- Generator: Adobe Illustrator 19.0.0, SVG Export Plug-In . SVG Version: 6.00 Build 0)  -->
<svg version="1.1" id="Capa_1" xmlns="http://www.w3.org/2000/svg" xmlns:xlink="http://www.w3.org/1999/xlink" x="0px" y="0px"
	 viewBox="0 0 490 490" style="enable-background:new 0 0 490 490;" xml:space="preserve">
<g>
	<circle cx="244.995" cy="334.313" r="64.289"/>
	<polygon points="136.003,119.808 119.345,145.499 165.252,175.286 119.33,205.089 136.018,230.779 221.508,175.286 	"/>
	<polygon points="370.64,145.499 353.982,119.808 268.477,175.286 353.967,230.779 370.655,205.089 324.733,175.286 	"/>
	<path d="M420.914,0H69.086C30.999,0,0,30.999,0,69.086v351.829C0,459.001,30.999,490,69.086,490h351.829
		C459.001,490,490,459.001,490,420.914V69.086C490,30.999,459.001,0,420.914,0z M459.375,420.914
		c0,21.204-17.257,38.461-38.461,38.461H69.086c-21.204,0-38.461-17.257-38.461-38.461V69.086c0-21.204,17.256-38.461,38.461-38.461
		h351.829c21.204,0,38.461,17.257,38.461,38.461V420.914z"/>
</g>
<g>
</g>
<g>
</g>
<g>
</g>
<g>
</g>
<g>
</g>
<g>
</g>
<g>
</g>
<g>
</g>
<g>
</g>
<g>
</g>
<g>
</g>
<g>
</g>
<g>
</g>
<g>
</g>
<g>
</g>
</svg>
